{"title":"Malena  - Uncensored (DVDRip)DTS","uid":6294748,"size":1461725086,"categoryP":"video","categoryS":"movies","magnet":"?xt=urn:btih:51039029dcfe071a925a6728a8eca6b92a3abda1&amp;dn=Malena++-+Uncensored+%28DVDRip%29DTS&amp;tr=udp%3A%2F%2Ftracker.openbittorrent.com%3A80&amp;tr=udp%3A%2F%2Fopen.demonii.com%3A1337&amp;tr=udp%3A%2F%2Ftracker.coppersurfer.tk%3A6969&amp;tr=udp%3A%2F%2Fexodus.desync.com%3A6969","seeders":4,"leechers":0,"uploader":"bladik8","files":3,"time":1301949965,"description":"Malena (original uncut release in 2000)\nMonica Bellucci\nDVD rip / XVID\n\n\nOn the day in 1940 that Italy enters the war, two things happen to the 12-year-old Renato: he gets his first bike, and he gets his first look at MalFna, a beautiful, silent outsider who's moved to this Sicilian town to be with her husband Nico who promptly goes off to war, leaving her to the lustful eyes of the men and the sharp tongues of the women. During the next few years, as Renato grows toward manhood, he watches Malena suffer and prove her mettle: her loneliness, then grief when Nico is reported dead, the effects of slander on her relationship with her father, her poverty and search for work, and final humiliations. Will Renato learn courage from Malena and stand up for her?\n\nSCREENSHOTS:\n &lt;a href=&quot;\nhttp://lnk.co/GPZD3&quot; rel=&quot;nofollow&quot; target=&quot;_NEW&quot;&gt;\nhttp://lnk.co/GPZD3&lt;/a&gt;\n &lt;a href=&quot;\nhttp://lnk.co/GPZD5&quot; rel=&quot;nofollow&quot; target=&quot;_NEW&quot;&gt;\nhttp://lnk.co/GPZD5&lt;/a&gt;\n\nVideo\nID                               : 1\nFormat                           : MPEG-4 Visual\nFormat profile                   : Advanced Simple@L5\nFormat settings, BVOP            : No\nFormat settings, QPel            : Yes\nFormat settings, GMC             : No warppoints\nFormat settings, Matrix          : Default (MPEG)\nCodec ID                         : XVID\nCodec ID/Hint                    : XviD\nDuration                         : 1h 43mn\nBit rate                         : 1 092 Kbps\nWidth                            : 800 pixels\nHeight                           : 320 pixels\nDisplay aspect ratio             : 2.500\nFrame rate                       : 25.000 fps\nColor space                      : YUV\nChroma subsampling               : 4:2:0\nBit depth                        : 8 bits\nScan type                        : Progressive\nCompression mode                 : Lossy\nBits/(Pixel*Frame)               : 0.171\nStream size                      : 808 MiB (58%)\nLanguage                         : Italian\n\nAudio\nID                               : 2\nFormat                           : DTS\nFormat/Info                      : Digital Theater Systems\nMuxing mode                      : Header stripping\nCodec ID                         : A_DTS\nDuration                         : 1h 43mn\nBit rate mode                    : Constant\nBit rate                         : 755 Kbps\nChannel(s)                       : 6 channels\nChannel positions                : Front: L C R, Side: L R, LFE\nSampling rate                    : 48.0 KHz\nBit depth                        : 16 bits\nCompression mode                 : Lossy\nDelay relative to video          : 11ms\nStream size                      : 558 MiB (40%)\nLanguage                         : Italian\n\nText\nID                               : 3\nFormat                           : UTF-8\nCodec ID                         : S_TEXT/UTF8\nCodec ID/Info                    : UTF-8 Plain Text\nTitle                            : Malena\nLanguage                         : English","torrent":{"xt":"urn:btih:51039029dcfe071a925a6728a8eca6b92a3abda1","amp;dn":"Malena++-+Uncensored+%28DVDRip%29DTS","amp;tr":["udp%3A%2F%2Ftracker.openbittorrent.com%3A80","udp%3A%2F%2Fopen.demonii.com%3A1337","udp%3A%2F%2Ftracker.coppersurfer.tk%3A6969","udp%3A%2F%2Fexodus.desync.com%3A6969"],"infoHash":"51039029dcfe071a925a6728a8eca6b92a3abda1","infoHashBuffer":{"type":"Buffer","data":[81,3,144,41,220,254,7,26,146,90,103,40,168,236,166,185,42,58,189,161]},"announce":[],"urlList":[]}}